Cascade-Bold.ufo
<glyph name="exclam" format="2">
  <advance width="290"/>
  <unicode hex="0021"/>
  <outline>
    <contour>
      <point x="205" y="200" type="line"/>
      <point x="225" y="700" type="line"/>
      <point x="65" y="700" type="line"/>
      <point x="85" y="200" type="line"/>
    </contour>
    <contour>
      <point x="145" y="-10" type="curve" smooth="yes"/>
      <point x="185" y="-10"/>
      <point x="220" y="25"/>
      <point x="220" y="65" type="curve" smooth="yes"/>
      <point x="220" y="105"/>
      <point x="185" y="140"/>
      <point x="145" y="140" type="curve" smooth="yes"/>
      <point x="105" y="140"/>
      <point x="70" y="105"/>
      <point x="70" y="65" type="curve" smooth="yes"/>
      <point x="70" y="25"/>
      <point x="105" y="-10"/>
    </contour>
  </outline>
</glyph>
<glyph name="numbersign" format="2">
  <advance width="667"/>
  <unicode hex="0023"/>
  <outline>
    <contour>
      <point x="192" y="0" type="line"/>
      <point x="237" y="170" type="line"/>
      <point x="337" y="170" type="line"/>
      <point x="292" y="0" type="line"/>
      <point x="422" y="0" type="line"/>
      <point x="467" y="170" type="line"/>
      <point x="595" y="170" type="line"/>
      <point x="595" y="260" type="line"/>
      <point x="492" y="260" type="line"/>
      <point x="537" y="440" type="line"/>
      <point x="652" y="440" type="line"/>
      <point x="652" y="530" type="line"/>
      <point x="557" y="530" type="line"/>
      <point x="602" y="700" type="line"/>
      <point x="472" y="700" type="line"/>
      <point x="427" y="530" type="line"/>
      <point x="327" y="530" type="line"/>
      <point x="372" y="700" type="line"/>
      <point x="242" y="700" type="line"/>
      <point x="197" y="530" type="line"/>
      <point x="72" y="530" type="line"/>
      <point x="72" y="440" type="line"/>
      <point x="177" y="440" type="line"/>
      <point x="132" y="260" type="line"/>
      <point x="15" y="260" type="line"/>
      <point x="15" y="170" type="line"/>
      <point x="107" y="170" type="line"/>
      <point x="62" y="0" type="line"/>
    </contour>
    <contour>
      <point x="307" y="440" type="line"/>
      <point x="407" y="440" type="line"/>
      <point x="362" y="260" type="line"/>
      <point x="262" y="260" type="line"/>
    </contour>
  </outline>
</glyph>
<glyph name="ampersand" format="2">
  <advance width="645"/>
  <unicode hex="0026"/>
  <outline>
    <contour>
      <point x="250" y="-10" type="curve" smooth="yes"/>
      <point x="316" y="-10"/>
      <point x="387" y="11"/>
      <point x="440" y="50" type="curve"/>
      <point x="480" y="0" type="line"/>
      <point x="640" y="0" type="line"/>
      <point x="530" y="135" type="line"/>
      <point x="565" y="180"/>
      <point x="590" y="235"/>
      <point x="590" y="320" type="curve"/>
      <point x="460" y="320" type="line"/>
      <point x="460" y="288"/>
      <point x="457" y="257"/>
      <point x="455" y="225" type="curve"/>
      <point x="329" y="375" type="line"/>
      <point x="394" y="414"/>
      <point x="465" y="478"/>
      <point x="465" y="560" type="curve" smooth="yes"/>
      <point x="465" y="640"/>
      <point x="395" y="710"/>
      <point x="275" y="710" type="curve" smooth="yes"/>
      <point x="150" y="710"/>
      <point x="80" y="640"/>
      <point x="80" y="550" type="curve" smooth="yes"/>
      <point x="80" y="484"/>
      <point x="120" y="421"/>
      <point x="170" y="380" type="curve"/>
      <point x="94" y="342"/>
      <point x="20" y="271"/>
      <point x="20" y="180" type="curve" smooth="yes"/>
      <point x="20" y="75"/>
      <point x="105" y="-10"/>
    </contour>
    <contour>
      <point x="270" y="80" type="curve" smooth="yes"/>
      <point x="205" y="80"/>
      <point x="160" y="124"/>
      <point x="160" y="180" type="curve" smooth="yes"/>
      <point x="160" y="229"/>
      <point x="191" y="273"/>
      <point x="230" y="300" type="curve"/>
      <point x="385" y="115" type="line"/>
      <point x="356" y="89"/>
      <point x="308" y="80"/>
    </contour>
    <contour>
      <point x="265" y="450" type="curve"/>
      <point x="244" y="476"/>
      <point x="220" y="516"/>
      <point x="220" y="550" type="curve" smooth="yes"/>
      <point x="220" y="601"/>
      <point x="244" y="625"/>
      <point x="275" y="625" type="curve" smooth="yes"/>
      <point x="300" y="625"/>
      <point x="325" y="600"/>
      <point x="325" y="560" type="curve" smooth="yes"/>
      <point x="325" y="519"/>
      <point x="296" y="475"/>
    </contour>
  </outline>
</glyph>
<glyph name="quotesingle" format="2">
  <advance width="205"/>
  <unicode hex="0027"/>
  <outline>
    <contour>
      <point x="145" y="455" type="line"/>
      <point x="170" y="700" type="line"/>
      <point x="35" y="700" type="line"/>
      <point x="60" y="455" type="line"/>
    </contour>
  </outline>
</glyph>
<glyph name="parenright" format="2">
  <advance width="320"/>
  <unicode hex="0029"/>
  <outline>
    <contour>
      <point x="55" y="-185" type="line"/>
      <point x="180" y="-81"/>
      <point x="265" y="91"/>
      <point x="265" y="280" type="curve" smooth="yes"/>
      <point x="265" y="469"/>
      <point x="180" y="641"/>
      <point x="55" y="745" type="curve"/>
      <point x="0" y="690" type="line"/>
      <point x="80" y="585"/>
      <point x="125" y="460"/>
      <point x="125" y="280" type="curve" smooth="yes"/>
      <point x="125" y="100"/>
      <point x="80" y="-25"/>
      <point x="0" y="-130" type="curve"/>
    </contour>
  </outline>
</glyph>
<glyph name="slash" format="2">
  <advance width="450"/>
  <unicode hex="002F"/>
  <outline>
    <contour>
      <point x="140" y="0" type="line"/>
      <point x="450" y="700" type="line"/>
      <point x="310" y="700" type="line"/>
      <point x="0" y="0" type="line"/>
    </contour>
  </outline>
</glyph>
<glyph name="one" format="2">
  <advance width="410"/>
  <unicode hex="0031"/>
  <outline>
    <contour>
      <point x="390" y="0" type="line"/>
      <point x="390" y="90" type="line"/>
      <point x="290" y="90" type="line"/>
      <point x="290" y="700" type="line"/>
      <point x="160" y="700" type="line"/>
      <point x="15" y="580" type="line"/>
      <point x="70" y="505" type="line"/>
      <point x="150" y="560" type="line"/>
      <point x="150" y="90" type="line"/>
      <point x="50" y="90" type="line"/>
      <point x="50" y="0" type="line"/>
    </contour>
  </outline>
</glyph>
<glyph name="seven" format="2">
  <advance width="480"/>
  <unicode hex="0037"/>
  <outline>
    <contour>
      <point x="290" y="0" type="line"/>
      <point x="290" y="90" type="line" smooth="yes"/>
      <point x="290" y="318"/>
      <point x="380" y="502"/>
      <point x="470" y="610" type="curve"/>
      <point x="470" y="700" type="line"/>
      <point x="10" y="700" type="line"/>
      <point x="10" y="610" type="line"/>
      <point x="330" y="610" type="line"/>
      <point x="240" y="502"/>
      <point x="150" y="318"/>
      <point x="150" y="90" type="curve" smooth="yes"/>
      <point x="150" y="0" type="line"/>
    </contour>
  </outline>
</glyph>
<glyph name="nine" format="2">
  <advance width="560"/>
  <unicode hex="0039"/>
  <outline>
    <contour>
      <point x="260" y="-10" type="curve" smooth="yes"/>
      <point x="415" y="-10"/>
      <point x="515" y="90"/>
      <point x="515" y="270" type="curve" smooth="yes"/>
      <point x="515" y="470" type="line" smooth="yes"/>
      <point x="515" y="626"/>
      <point x="430" y="710"/>
      <point x="269" y="710" type="curve" smooth="yes"/>
      <point x="120" y="710"/>
      <point x="35" y="626"/>
      <point x="35" y="470" type="curve" smooth="yes"/>
      <point x="35" y="325"/>
      <point x="119" y="240"/>
      <point x="260" y="240" type="curve" smooth="yes"/>
      <point x="295" y="240"/>
      <point x="324" y="247"/>
      <point x="344" y="255" type="curve"/>
      <point x="356" y="259"/>
      <point x="366" y="264"/>
      <point x="375" y="270" type="curve"/>
      <point x="375" y="130"/>
      <point x="325" y="80"/>
      <point x="250" y="80" type="curve" smooth="yes"/>
      <point x="207" y="80"/>
      <point x="176" y="91"/>
      <point x="153" y="102" type="curve"/>
      <point x="140" y="109"/>
      <point x="129" y="116"/>
      <point x="119" y="125" type="curve"/>
      <point x="109" y="125" type="line"/>
      <point x="64" y="45" type="line"/>
      <point x="79" y="34"/>
      <point x="96" y="25"/>
      <point x="115" y="17" type="curve"/>
      <point x="148" y="2"/>
      <point x="196" y="-10"/>
    </contour>
    <contour>
      <point x="285" y="330" type="curve" smooth="yes"/>
      <point x="220" y="330"/>
      <point x="175" y="374"/>
      <point x="175" y="470" type="curve" smooth="yes"/>
      <point x="175" y="575"/>
      <point x="220" y="620"/>
      <point x="270" y="620" type="curve" smooth="yes"/>
      <point x="330" y="620"/>
      <point x="375" y="575"/>
      <point x="375" y="470" type="curve" smooth="yes"/>
      <point x="375" y="360" type="line"/>
      <point x="367" y="354"/>
      <point x="358" y="349"/>
      <point x="349" y="345" type="curve"/>
      <point x="333" y="337"/>
      <point x="310" y="330"/>
    </contour>
  </outline>
</glyph>
<glyph name="less" format="2">
  <advance width="455"/>
  <unicode hex="003C"/>
  <outline>
    <contour>
      <point x="420" y="120" type="line"/>
      <point x="170" y="250" type="line"/>
      <point x="420" y="380" type="line"/>
      <point x="420" y="500" type="line"/>
      <point x="20" y="290" type="line"/>
      <point x="20" y="210" type="line"/>
      <point x="420" y="0" type="line"/>
    </contour>
  </outline>
</glyph>
<glyph name="K" format="2">
  <advance width="585"/>
  <unicode hex="004B"/>
  <outline>
    <contour>
      <point x="225" y="0" type="line"/>
      <point x="225" y="330" type="line"/>
      <point x="420" y="0" type="line"/>
      <point x="580" y="0" type="line"/>
      <point x="355" y="365" type="line"/>
      <point x="565" y="700" type="line"/>
      <point x="410" y="700" type="line"/>
      <point x="225" y="390" type="line"/>
      <point x="225" y="700" type="line"/>
      <point x="85" y="700" type="line"/>
      <point x="85" y="0" type="line"/>
    </contour>
  </outline>
</glyph>
<glyph name="L" format="2">
  <advance width="505"/>
  <unicode hex="004C"/>
  <outline>
    <contour>
      <point x="495" y="0" type="line"/>
      <point x="495" y="90" type="line"/>
      <point x="225" y="90" type="line"/>
      <point x="225" y="700" type="line"/>
      <point x="85" y="700" type="line"/>
      <point x="85" y="0" type="line"/>
    </contour>
  </outline>
</glyph>
<glyph name="M" format="2">
  <advance width="870"/>
  <unicode hex="004D"/>
  <outline>
    <contour>
      <point x="225" y="0" type="line"/>
      <point x="225" y="405" type="line" smooth="yes"/>
      <point x="225" y="420"/>
      <point x="223" y="436"/>
      <point x="222" y="449" type="curve" smooth="yes"/>
      <point x="220" y="471" type="line"/>
      <point x="224" y="471" type="line"/>
      <point x="226" y="464"/>
      <point x="228" y="456"/>
      <point x="231" y="449" type="curve"/>
      <point x="236" y="436"/>
      <point x="243" y="420"/>
      <point x="250" y="405" type="curve"/>
      <point x="395" y="115" type="line"/>
      <point x="465" y="115" type="line"/>
      <point x="620" y="415" type="line" smooth="yes"/>
      <point x="628" y="430"/>
      <point x="634" y="446"/>
      <point x="639" y="459" type="curve"/>
      <point x="642" y="466"/>
      <point x="644" y="474"/>
      <point x="646" y="481" type="curve"/>
      <point x="650" y="481" type="line"/>
      <point x="647" y="459" type="line" smooth="yes"/>
      <point x="645" y="446"/>
      <point x="645" y="430"/>
      <point x="645" y="415" type="curve" smooth="yes"/>
      <point x="645" y="0" type="line"/>
      <point x="785" y="0" type="line"/>
      <point x="785" y="700" type="line"/>
      <point x="650" y="700" type="line"/>
      <point x="455" y="305" type="line"/>
      <point x="450" y="294"/>
      <point x="445" y="283"/>
      <point x="442" y="272" type="curve" smooth="yes"/>
      <point x="441.075" y="268.854"/>
      <point x="437.773" y="257.629"/>
      <point x="437" y="255" type="curve"/>
      <point x="433" y="255" type="line"/>
      <point x="432.227" y="257.629"/>
      <point x="428.925" y="268.854"/>
      <point x="428" y="272" type="curve" smooth="yes"/>
      <point x="425" y="283"/>
      <point x="420" y="294"/>
      <point x="415" y="305" type="curve"/>
      <point x="220" y="700" type="line"/>
      <point x="85" y="700" type="line"/>
      <point x="85" y="0" type="line"/>
    </contour>
  </outline>
</glyph>
<glyph name="T" format="2">
  <advance width="510"/>
  <unicode hex="0054"/>
  <outline>
    <contour>
      <point x="325" y="0" type="line"/>
      <point x="325" y="610" type="line"/>
      <point x="500" y="610" type="line"/>
      <point x="500" y="700" type="line"/>
      <point x="10" y="700" type="line"/>
      <point x="10" y="610" type="line"/>
      <point x="185" y="610" type="line"/>
      <point x="185" y="0" type="line"/>
    </contour>
  </outline>
</glyph>
<glyph name="U" format="2">
  <advance width="640"/>
  <unicode hex="0055"/>
  <outline>
    <contour>
      <point x="320" y="-10" type="curve" smooth="yes"/>
      <point x="476" y="-10"/>
      <point x="565" y="79"/>
      <point x="565" y="230" type="curve" smooth="yes"/>
      <point x="565" y="700" type="line"/>
      <point x="425" y="700" type="line"/>
      <point x="425" y="230" type="line" smooth="yes"/>
      <point x="425" y="125"/>
      <point x="380" y="80"/>
      <point x="320" y="80" type="curve" smooth="yes"/>
      <point x="260" y="80"/>
      <point x="215" y="125"/>
      <point x="215" y="230" type="curve" smooth="yes"/>
      <point x="215" y="700" type="line"/>
      <point x="75" y="700" type="line"/>
      <point x="75" y="230" type="line" smooth="yes"/>
      <point x="75" y="79"/>
      <point x="164" y="-10"/>
    </contour>
  </outline>
</glyph>
<glyph name="X" format="2">
  <advance width="560"/>
  <unicode hex="0058"/>
  <outline>
    <contour>
      <point x="160" y="0" type="line"/>
      <point x="265" y="225" type="line"/>
      <point x="266.637" y="229.911"/>
      <point x="273.34" y="250.02"/>
      <point x="275" y="255" type="curve"/>
      <point x="278" y="270" type="line"/>
      <point x="282" y="270" type="line"/>
      <point x="285" y="255" type="line"/>
      <point x="288" y="246"/>
      <point x="290" y="236"/>
      <point x="295" y="225" type="curve" smooth="yes"/>
      <point x="400" y="0" type="line"/>
      <point x="550" y="0" type="line"/>
      <point x="375" y="355" type="line"/>
      <point x="545" y="700" type="line"/>
      <point x="395" y="700" type="line"/>
      <point x="295" y="485" type="line" smooth="yes"/>
      <point x="290" y="474"/>
      <point x="288" y="464"/>
      <point x="285" y="455" type="curve"/>
      <point x="282" y="440" type="line"/>
      <point x="278" y="440" type="line"/>
      <point x="275" y="455" type="line"/>
      <point x="273.489" y="459.532"/>
      <point x="266.568" y="480.295"/>
      <point x="265" y="485" type="curve"/>
      <point x="165" y="700" type="line"/>
      <point x="15" y="700" type="line"/>
      <point x="185" y="355" type="line"/>
      <point x="10" y="0" type="line"/>
    </contour>
  </outline>
</glyph>
<glyph name="asciicircum" format="2">
  <advance width="470"/>
  <unicode hex="005E"/>
  <outline>
    <contour>
      <point x="130" y="440" type="line"/>
      <point x="235" y="600" type="line"/>
      <point x="340" y="440" type="line"/>
      <point x="470" y="440" type="line"/>
      <point x="285" y="720" type="line"/>
      <point x="185" y="720" type="line"/>
      <point x="0" y="440" type="line"/>
    </contour>
  </outline>
</glyph>
<glyph name="j" format="2">
  <advance width="300"/>
  <unicode hex="006A"/>
  <outline>
    <contour>
      <point x="35" y="-200" type="curve" smooth="yes"/>
      <point x="160" y="-200"/>
      <point x="230" y="-130"/>
      <point x="230" y="-30" type="curve" smooth="yes"/>
      <point x="230" y="500" type="line"/>
      <point x="90" y="500" type="line"/>
      <point x="90" y="-30" type="line" smooth="yes"/>
      <point x="90" y="-86"/>
      <point x="65" y="-110"/>
      <point x="25" y="-110" type="curve" smooth="yes"/>
      <point x="10" y="-110"/>
      <point x="-3" y="-105"/>
      <point x="-14" y="-98" type="curve"/>
      <point x="-20" y="-95"/>
      <point x="-25" y="-90"/>
      <point x="-30" y="-85" type="curve"/>
      <point x="-40" y="-85" type="line"/>
      <point x="-75" y="-170" type="line"/>
      <point x="-66" y="-176"/>
      <point x="-55" y="-181"/>
      <point x="-43" y="-185" type="curve"/>
      <point x="-23" y="-193"/>
      <point x="4" y="-200"/>
    </contour>
    <contour>
      <point x="160" y="565" type="curve" smooth="yes"/>
      <point x="200" y="565"/>
      <point x="235" y="600"/>
      <point x="235" y="640" type="curve" smooth="yes"/>
      <point x="235" y="680"/>
      <point x="200" y="715"/>
      <point x="160" y="715" type="curve" smooth="yes"/>
      <point x="120" y="715"/>
      <point x="85" y="680"/>
      <point x="85" y="640" type="curve" smooth="yes"/>
      <point x="85" y="600"/>
      <point x="120" y="565"/>
    </contour>
  </outline>
</glyph>
<glyph name="l" format="2">
  <advance width="280"/>
  <unicode hex="006C"/>
  <outline>
    <contour>
      <point x="210" y="0" type="line"/>
      <point x="210" y="700" type="line"/>
      <point x="110" y="700" type="line"/>
      <point x="70" y="660" type="line"/>
      <point x="70" y="0" type="line"/>
    </contour>
  </outline>
</glyph>
<glyph name="m" format="2">
  <advance width="835"/>
  <unicode hex="006D"/>
  <outline>
    <contour>
      <point x="210" y="0" type="line"/>
      <point x="210" y="355" type="line"/>
      <point x="215" y="366"/>
      <point x="222" y="376"/>
      <point x="229" y="385" type="curve" smooth="yes"/>
      <point x="241" y="400"/>
      <point x="260" y="415"/>
      <point x="285" y="415" type="curve" smooth="yes"/>
      <point x="320" y="415"/>
      <point x="350" y="385"/>
      <point x="350" y="320" type="curve" smooth="yes"/>
      <point x="350" y="0" type="line"/>
      <point x="490" y="0" type="line"/>
      <point x="490" y="365" type="line"/>
      <point x="497" y="374"/>
      <point x="504" y="383"/>
      <point x="511" y="390" type="curve"/>
      <point x="524" y="402"/>
      <point x="542" y="415"/>
      <point x="565" y="415" type="curve" smooth="yes"/>
      <point x="600" y="415"/>
      <point x="630" y="385"/>
      <point x="630" y="320" type="curve" smooth="yes"/>
      <point x="630" y="0" type="line"/>
      <point x="770" y="0" type="line"/>
      <point x="770" y="320" type="line" smooth="yes"/>
      <point x="770" y="441"/>
      <point x="701" y="510"/>
      <point x="590" y="510" type="curve" smooth="yes"/>
      <point x="542" y="510"/>
      <point x="506" y="492"/>
      <point x="479" y="475" type="curve"/>
      <point x="464" y="464"/>
      <point x="451" y="453"/>
      <point x="440" y="440" type="curve"/>
      <point x="433" y="453"/>
      <point x="424" y="464"/>
      <point x="412" y="475" type="curve"/>
      <point x="392" y="492"/>
      <point x="361" y="510"/>
      <point x="310" y="510" type="curve" smooth="yes"/>
      <point x="270" y="510"/>
      <point x="238" y="492"/>
      <point x="217" y="475" type="curve"/>
      <point x="205" y="464"/>
      <point x="194" y="453"/>
      <point x="185" y="440" type="curve"/>
      <point x="180" y="440" type="line"/>
      <point x="170" y="500" type="line"/>
      <point x="70" y="500" type="line"/>
      <point x="70" y="0" type="line"/>
    </contour>
  </outline>
</glyph>
<glyph name="v" format="2">
  <advance width="491"/>
  <unicode hex="0076"/>
  <outline>
    <contour>
      <point x="311" y="0" type="line"/>
      <point x="476" y="500" type="line"/>
      <point x="347" y="500" type="line"/>
      <point x="257" y="190" type="line" smooth="yes"/>
      <point x="254" y="179"/>
      <point x="252" y="166"/>
      <point x="251" y="155" type="curve" smooth="yes"/>
      <point x="249" y="135" type="line"/>
      <point x="245" y="135" type="line"/>
      <point x="243" y="155" type="line" smooth="yes"/>
      <point x="242" y="166"/>
      <point x="240" y="179"/>
      <point x="237" y="190" type="curve" smooth="yes"/>
      <point x="147" y="500" type="line"/>
      <point x="15" y="500" type="line"/>
      <point x="180" y="0" type="line"/>
    </contour>
  </outline>
</glyph>
<glyph name="currency" format="2">
  <advance width="600"/>
  <unicode hex="00A4"/>
  <outline>
    <contour>
      <point x="230" y="0" type="line"/>
      <point x="230" y="155" type="line"/>
      <point x="470" y="155" type="line"/>
      <point x="470" y="230" type="line"/>
      <point x="230" y="230" type="line"/>
      <point x="230" y="275" type="line"/>
      <point x="290" y="275" type="line" smooth="yes"/>
      <point x="479" y="275"/>
      <point x="560" y="355"/>
      <point x="560" y="480" type="curve" smooth="yes"/>
      <point x="560" y="611"/>
      <point x="470" y="700"/>
      <point x="290" y="700" type="curve" smooth="yes"/>
      <point x="90" y="700" type="line"/>
      <point x="90" y="350" type="line"/>
      <point x="20" y="350" type="line"/>
      <point x="20" y="275" type="line"/>
      <point x="90" y="275" type="line"/>
      <point x="90" y="230" type="line"/>
      <point x="20" y="230" type="line"/>
      <point x="20" y="155" type="line"/>
      <point x="90" y="155" type="line"/>
      <point x="90" y="0" type="line"/>
    </contour>
    <contour>
      <point x="230" y="610" type="line"/>
      <point x="290" y="610" type="line" smooth="yes"/>
      <point x="377" y="610"/>
      <point x="420" y="567"/>
      <point x="420" y="480" type="curve" smooth="yes"/>
      <point x="420" y="393"/>
      <point x="377" y="350"/>
      <point x="290" y="350" type="curve" smooth="yes"/>
      <point x="230" y="350" type="line"/>
    </contour>
  </outline>
</glyph>
<glyph name="macron" format="2">
  <advance width="310"/>
  <unicode hex="00AF"/>
  <outline>
    <contour>
      <point x="300" y="570" type="line"/>
      <point x="300" y="660" type="line"/>
      <point x="10" y="660" type="line"/>
      <point x="10" y="570" type="line"/>
    </contour>
  </outline>
</glyph>
<glyph name="onequarter" format="2">
  <advance width="790"/>
  <unicode hex="00BC"/>
  <outline>
    <contour>
      <point x="255" y="0" type="line"/>
      <point x="725" y="700" type="line"/>
      <point x="575" y="700" type="line"/>
      <point x="105" y="0" type="line"/>
    </contour>
    <contour>
      <point x="300" y="360" type="line"/>
      <point x="300" y="440" type="line"/>
      <point x="230" y="440" type="line"/>
      <point x="230" y="700" type="line"/>
      <point x="130" y="700" type="line"/>
      <point x="25" y="620" type="line"/>
      <point x="60" y="570" type="line"/>
      <point x="110" y="595" type="line"/>
      <point x="110" y="440" type="line"/>
      <point x="40" y="440" type="line"/>
      <point x="40" y="360" type="line"/>
    </contour>
    <contour>
      <point x="575" y="204" type="line"/>
      <point x="580" y="209"/>
      <point x="584" y="217"/>
      <point x="587" y="224" type="curve"/>
      <point x="589" y="227"/>
      <point x="590" y="231"/>
      <point x="591" y="235" type="curve"/>
      <point x="595" y="235" type="line"/>
      <point x="592" y="224" type="line"/>
      <point x="591" y="217"/>
      <point x="590" y="210"/>
      <point x="590" y="205" type="curve" smooth="yes"/>
      <point x="590" y="140" type="line"/>
      <point x="520" y="140" type="line"/>
    </contour>
    <contour>
      <point x="710" y="0" type="line"/>
      <point x="710" y="60" type="line"/>
      <point x="755" y="60" type="line"/>
      <point x="755" y="140" type="line"/>
      <point x="710" y="140" type="line"/>
      <point x="710" y="340" type="line"/>
      <point x="595" y="340" type="line"/>
      <point x="425" y="140" type="line"/>
      <point x="425" y="60" type="line"/>
      <point x="590" y="60" type="line"/>
      <point x="590" y="0" type="line"/>
    </contour>
  </outline>
</glyph>
<glyph name="Oslash" format="2">
  <advance width="630"/>
  <unicode hex="00D8"/>
  <outline>
    <contour>
      <point x="315" y="-10" type="curve" smooth="yes"/>
      <point x="475" y="-10"/>
      <point x="580" y="95"/>
      <point x="580" y="350" type="curve" smooth="yes"/>
      <point x="580" y="463"/>
      <point x="559" y="545"/>
      <point x="523" y="604" type="curve"/>
      <point x="580" y="700" type="line"/>
      <point x="465" y="700" type="line"/>
      <point x="450" y="676" type="line"/>
      <point x="413" y="699"/>
      <point x="368" y="710"/>
      <point x="315" y="710" type="curve" smooth="yes"/>
      <point x="155" y="710"/>
      <point x="50" y="605"/>
      <point x="50" y="350" type="curve" smooth="yes"/>
      <point x="50" y="237"/>
      <point x="70" y="155"/>
      <point x="107" y="96" type="curve"/>
      <point x="50" y="0" type="line"/>
      <point x="165" y="0" type="line"/>
      <point x="179" y="24" type="line"/>
      <point x="218" y="1"/>
      <point x="263" y="-10"/>
    </contour>
    <contour>
      <point x="315" y="80" type="curve" smooth="yes"/>
      <point x="286" y="80"/>
      <point x="260" y="91"/>
      <point x="237" y="122" type="curve"/>
      <point x="434" y="453" type="line"/>
      <point x="438" y="424"/>
      <point x="440" y="389"/>
      <point x="440" y="350" type="curve" smooth="yes"/>
      <point x="440" y="139"/>
      <point x="380" y="80"/>
    </contour>
    <contour>
      <point x="196" y="246" type="line"/>
      <point x="192" y="275"/>
      <point x="190" y="309"/>
      <point x="190" y="350" type="curve" smooth="yes"/>
      <point x="190" y="561"/>
      <point x="250" y="620"/>
      <point x="315" y="620" type="curve" smooth="yes"/>
      <point x="343" y="620"/>
      <point x="369" y="609"/>
      <point x="392" y="578" type="curve"/>
    </contour>
  </outline>
</glyph>
<glyph name="hbar" format="2">
  <advance width="575"/>
  <unicode hex="0127"/>
  <outline>
    <contour>
      <point x="215" y="0" type="line"/>
      <point x="215" y="295" type="line"/>
      <point x="222" y="306"/>
      <point x="229" y="316"/>
      <point x="237" y="325" type="curve"/>
      <point x="252" y="340"/>
      <point x="272" y="355"/>
      <point x="300" y="355" type="curve" smooth="yes"/>
      <point x="345" y="355"/>
      <point x="375" y="325"/>
      <point x="375" y="260" type="curve" smooth="yes"/>
      <point x="375" y="0" type="line"/>
      <point x="515" y="0" type="line"/>
      <point x="515" y="260" type="line" smooth="yes"/>
      <point x="515" y="381"/>
      <point x="446" y="450"/>
      <point x="325" y="450" type="curve" smooth="yes"/>
      <point x="290" y="450"/>
      <point x="263" y="438"/>
      <point x="244" y="427" type="curve"/>
      <point x="233" y="420"/>
      <point x="223" y="413"/>
      <point x="215" y="405" type="curve"/>
      <point x="215" y="500" type="line"/>
      <point x="340" y="500" type="line"/>
      <point x="340" y="590" type="line"/>
      <point x="215" y="590" type="line"/>
      <point x="215" y="700" type="line"/>
      <point x="115" y="700" type="line"/>
      <point x="75" y="660" type="line"/>
      <point x="75" y="590" type="line"/>
      <point x="20" y="590" type="line"/>
      <point x="20" y="500" type="line"/>
      <point x="75" y="500" type="line"/>
      <point x="75" y="0" type="line"/>
    </contour>
  </outline>
</glyph>
<glyph name="kgreenlandic" format="2">
  <advance width="510"/>
  <unicode hex="0138"/>
  <outline>
    <contour>
      <point x="210" y="0" type="line"/>
      <point x="210" y="235" type="line"/>
      <point x="350" y="0" type="line"/>
      <point x="505" y="0" type="line"/>
      <point x="335" y="260" type="line"/>
      <point x="495" y="500" type="line"/>
      <point x="340" y="500" type="line"/>
      <point x="210" y="285" type="line"/>
      <point x="210" y="500" type="line"/>
      <point x="110" y="500" type="line"/>
      <point x="70" y="460" type="line"/>
      <point x="70" y="0" type="line"/>
    </contour>
  </outline>
</glyph>
<glyph name="caron" format="2">
  <advance width="340"/>
  <unicode hex="02C7"/>
  <outline>
    <contour>
      <point x="220" y="566" type="line"/>
      <point x="330" y="700" type="line"/>
      <point x="235" y="700" type="line"/>
      <point x="170" y="630" type="line"/>
      <point x="105" y="700" type="line"/>
      <point x="10" y="700" type="line"/>
      <point x="120" y="566" type="line"/>
    </contour>
  </outline>
</glyph>
<glyph name="ring" format="2">
  <advance width="240"/>
  <unicode hex="02DA"/>
  <outline>
    <contour>
      <point x="120" y="545" type="curve" smooth="yes"/>
      <point x="185" y="545"/>
      <point x="230" y="590"/>
      <point x="230" y="650" type="curve" smooth="yes"/>
      <point x="230" y="710"/>
      <point x="185" y="755"/>
      <point x="120" y="755" type="curve" smooth="yes"/>
      <point x="55" y="755"/>
      <point x="10" y="710"/>
      <point x="10" y="650" type="curve" smooth="yes"/>
      <point x="10" y="590"/>
      <point x="55" y="545"/>
    </contour>
    <contour>
      <point x="120" y="610" type="curve" smooth="yes"/>
      <point x="100" y="610"/>
      <point x="85" y="625"/>
      <point x="85" y="650" type="curve" smooth="yes"/>
      <point x="85" y="675"/>
      <point x="100" y="690"/>
      <point x="120" y="690" type="curve" smooth="yes"/>
      <point x="140" y="690"/>
      <point x="155" y="675"/>
      <point x="155" y="650" type="curve" smooth="yes"/>
      <point x="155" y="625"/>
      <point x="140" y="610"/>
    </contour>
  </outline>
</glyph>
<glyph name="tilde" format="2">
  <advance width="330"/>
  <unicode hex="02DC"/>
  <outline>
    <contour>
      <point x="225" y="585" type="curve" smooth="yes"/>
      <point x="276" y="585"/>
      <point x="315" y="634"/>
      <point x="320" y="685" type="curve"/>
      <point x="264" y="715" type="line"/>
      <point x="255" y="715" type="line"/>
      <point x="256" y="714"/>
      <point x="239" y="674"/>
      <point x="215" y="675" type="curve"/>
      <point x="180" y="675"/>
      <point x="160" y="720"/>
      <point x="105" y="720" type="curve" smooth="yes"/>
      <point x="54" y="720"/>
      <point x="15" y="671"/>
      <point x="10" y="620" type="curve"/>
      <point x="66" y="590" type="line"/>
      <point x="75" y="590" type="line"/>
      <point x="74" y="589"/>
      <point x="89" y="629"/>
      <point x="115" y="630" type="curve"/>
      <point x="150" y="630"/>
      <point x="170" y="585"/>
    </contour>
  </outline>
</glyph>
<glyph name="acutecomb" format="2">
  <advance width="200"/>
  <unicode hex="0301"/>
  <anchor x="50" y="500" name="_top"/>
  <anchor x="100" y="700" name="top"/>
  <outline>
    <contour>
      <point x="90" y="550" type="line"/>
      <point x="190" y="700" type="line"/>
      <point x="55" y="700" type="line"/>
      <point x="10" y="550" type="line"/>
    </contour>
  </outline>
</glyph>
<glyph name="macroncomb" format="2">
  <advance width="310"/>
  <unicode hex="0304"/>
  <anchor x="155" y="500" name="_top"/>
  <anchor x="155" y="660" name="top"/>
  <outline>
    <contour>
      <point x="300" y="570" type="line"/>
      <point x="300" y="660" type="line"/>
      <point x="10" y="660" type="line"/>
      <point x="10" y="570" type="line"/>
    </contour>
  </outline>
</glyph>
<glyph name="commaaccentcomb" format="2">
  <advance width="150"/>
  <unicode hex="0326"/>
  <anchor x="75" y="0" name="_bottom"/>
  <anchor x="75" y="-250" name="bottom"/>
  <outline>
    <contour>
      <point x="55" y="-250" type="line"/>
      <point x="71" y="-240"/>
      <point x="85" y="-227"/>
      <point x="97" y="-211" type="curve" smooth="yes"/>
      <point x="118" y="-184"/>
      <point x="140" y="-144"/>
      <point x="140" y="-85" type="curve" smooth="yes"/>
      <point x="140" y="-38"/>
      <point x="113" y="-10"/>
      <point x="70" y="-10" type="curve" smooth="yes"/>
      <point x="38" y="-10"/>
      <point x="10" y="-38"/>
      <point x="10" y="-75" type="curve" smooth="yes"/>
      <point x="10" y="-107"/>
      <point x="37" y="-135"/>
      <point x="80" y="-135" type="curve"/>
      <point x="80" y="-158"/>
      <point x="67" y="-177"/>
      <point x="52" y="-192" type="curve"/>
      <point x="44" y="-201"/>
      <point x="35" y="-209"/>
      <point x="25" y="-216" type="curve"/>
    </contour>
  </outline>
</glyph>
<glyph name="A-cy" format="2">
  <advance width="600"/>
  <unicode hex="0410"/>
  <anchor x="300" y="700" name="top"/>
  <outline>
    <contour>
      <point x="155" y="0" type="line"/>
      <point x="200" y="160" type="line"/>
      <point x="400" y="160" type="line"/>
      <point x="445" y="0" type="line"/>
      <point x="585" y="0" type="line"/>
      <point x="380" y="700" type="line"/>
      <point x="220" y="700" type="line"/>
      <point x="15" y="0" type="line"/>
    </contour>
    <contour>
      <point x="285" y="460" type="line" smooth="yes"/>
      <point x="289" y="475"/>
      <point x="291" y="494"/>
      <point x="294" y="509" type="curve"/>
      <point x="298" y="535" type="line"/>
      <point x="302" y="535" type="line"/>
      <point x="305" y="509" type="line"/>
      <point x="308" y="494"/>
      <point x="310" y="476"/>
      <point x="315" y="460" type="curve" smooth="yes"/>
      <point x="375" y="250" type="line"/>
      <point x="225" y="250" type="line"/>
    </contour>
  </outline>
</glyph>
<glyph name="Be-cy" format="2">
  <advance width="600"/>
  <unicode hex="0411"/>
  <outline>
    <contour>
      <point x="290" y="0" type="line" smooth="yes"/>
      <point x="479" y="0"/>
      <point x="560" y="80"/>
      <point x="560" y="215" type="curve" smooth="yes"/>
      <point x="560" y="340"/>
      <point x="479" y="430"/>
      <point x="290" y="430" type="curve" smooth="yes"/>
      <point x="225" y="430" type="line"/>
      <point x="225" y="610" type="line"/>
      <point x="505" y="610" type="line"/>
      <point x="505" y="700" type="line"/>
      <point x="85" y="700" type="line"/>
      <point x="85" y="0" type="line"/>
    </contour>
    <contour>
      <point x="225" y="340" type="line"/>
      <point x="290" y="340" type="line" smooth="yes"/>
      <point x="381" y="340"/>
      <point x="420" y="300"/>
      <point x="420" y="215" type="curve" smooth="yes"/>
      <point x="420" y="130"/>
      <point x="381" y="90"/>
      <point x="290" y="90" type="curve" smooth="yes"/>
      <point x="225" y="90" type="line"/>
    </contour>
  </outline>
</glyph>
<glyph name="Ie-cy" format="2">
  <advance width="530"/>
  <unicode hex="0415"/>
  <anchor x="313" y="700" name="top"/>
  <outline>
    <contour>
      <point x="505" y="0" type="line"/>
      <point x="505" y="90" type="line"/>
      <point x="225" y="90" type="line"/>
      <point x="225" y="320" type="line"/>
      <point x="445" y="320" type="line"/>
      <point x="445" y="410" type="line"/>
      <point x="225" y="410" type="line"/>
      <point x="225" y="610" type="line"/>
      <point x="505" y="610" type="line"/>
      <point x="505" y="700" type="line"/>
      <point x="85" y="700" type="line"/>
      <point x="85" y="0" type="line"/>
    </contour>
  </outline>
</glyph>
<glyph name="Tse-cy" format="2">
  <advance width="670"/>
  <unicode hex="0426"/>
  <outline>
    <contour>
      <point x="630" y="-150" type="line"/>
      <point x="630" y="90" type="line"/>
      <point x="565" y="90" type="line"/>
      <point x="565" y="700" type="line"/>
      <point x="425" y="700" type="line"/>
      <point x="425" y="90" type="line"/>
      <point x="225" y="90" type="line"/>
      <point x="225" y="700" type="line"/>
      <point x="85" y="700" type="line"/>
      <point x="85" y="0" type="line"/>
      <point x="505" y="0" type="line"/>
      <point x="525" y="-150" type="line"/>
    </contour>
  </outline>
</glyph>
<glyph name="Hardsign-cy" format="2">
  <advance width="650"/>
  <unicode hex="042A"/>
  <outline>
    <contour>
      <point x="359" y="0" type="line" smooth="yes"/>
      <point x="509" y="0"/>
      <point x="615" y="63"/>
      <point x="615" y="225" type="curve" smooth="yes"/>
      <point x="615" y="370"/>
      <point x="534" y="450"/>
      <point x="345" y="450" type="curve" smooth="yes"/>
      <point x="280" y="450" type="line"/>
      <point x="280" y="700" type="line"/>
      <point x="10" y="700" type="line"/>
      <point x="10" y="610" type="line"/>
      <point x="140" y="610" type="line"/>
      <point x="140" y="0" type="line"/>
    </contour>
    <contour>
      <point x="280" y="360" type="line"/>
      <point x="345" y="360" type="line" smooth="yes"/>
      <point x="436" y="360"/>
      <point x="475" y="321"/>
      <point x="475" y="225" type="curve" smooth="yes"/>
      <point x="475" y="129"/>
      <point x="436" y="90"/>
      <point x="345" y="90" type="curve" smooth="yes"/>
      <point x="280" y="90" type="line"/>
    </contour>
  </outline>
</glyph>
<glyph name="Softsign-cy" format="2">
  <advance width="595"/>
  <unicode hex="042C"/>
  <outline>
    <contour>
      <point x="290" y="0" type="line" smooth="yes"/>
      <point x="479" y="0"/>
      <point x="560" y="80"/>
      <point x="560" y="225" type="curve" smooth="yes"/>
      <point x="560" y="370"/>
      <point x="479" y="450"/>
      <point x="290" y="450" type="curve" smooth="yes"/>
      <point x="225" y="450" type="line"/>
      <point x="225" y="700" type="line"/>
      <point x="85" y="700" type="line"/>
      <point x="85" y="0" type="line"/>
    </contour>
    <contour>
      <point x="225" y="360" type="line"/>
      <point x="290" y="360" type="line" smooth="yes"/>
      <point x="381" y="360"/>
      <point x="420" y="321"/>
      <point x="420" y="225" type="curve" smooth="yes"/>
      <point x="420" y="129"/>
      <point x="381" y="90"/>
      <point x="290" y="90" type="curve" smooth="yes"/>
      <point x="225" y="90" type="line"/>
    </contour>
  </outline>
</glyph>
<glyph name="a-cy" format="2">
  <advance width="540"/>
  <unicode hex="0430"/>
  <anchor x="270" y="500" name="top"/>
  <outline>
    <contour>
      <point x="225" y="-10" type="curve" smooth="yes"/>
      <point x="270" y="-10"/>
      <point x="303" y="6"/>
      <point x="326" y="25" type="curve"/>
      <point x="339" y="35"/>
      <point x="350" y="47"/>
      <point x="360" y="60" type="curve"/>
      <point x="365" y="60" type="line"/>
      <point x="375" y="0" type="line"/>
      <point x="475" y="0" type="line"/>
      <point x="475" y="320" type="line" smooth="yes"/>
      <point x="475" y="430"/>
      <point x="394" y="510"/>
      <point x="250" y="510" type="curve" smooth="yes"/>
      <point x="199" y="510"/>
      <point x="158" y="497"/>
      <point x="127" y="485" type="curve" smooth="yes"/>
      <point x="110" y="478"/>
      <point x="94" y="469"/>
      <point x="80" y="460" type="curve"/>
      <point x="125" y="380" type="line"/>
      <point x="135" y="380" type="line"/>
      <point x="143" y="387"/>
      <point x="152" y="394"/>
      <point x="163" y="400" type="curve" smooth="yes"/>
      <point x="182" y="411"/>
      <point x="207" y="420"/>
      <point x="240" y="420" type="curve" smooth="yes"/>
      <point x="305" y="420"/>
      <point x="335" y="391"/>
      <point x="335" y="320" type="curve" smooth="yes"/>
      <point x="335" y="305" type="line"/>
      <point x="265" y="305" type="line" smooth="yes"/>
      <point x="105" y="305"/>
      <point x="40" y="241"/>
      <point x="40" y="145" type="curve" smooth="yes"/>
      <point x="40" y="54"/>
      <point x="105" y="-10"/>
    </contour>
    <contour>
      <point x="250" y="85" type="curve" smooth="yes"/>
      <point x="205" y="85"/>
      <point x="180" y="110"/>
      <point x="180" y="145" type="curve" smooth="yes"/>
      <point x="180" y="190"/>
      <point x="205" y="215"/>
      <point x="265" y="215" type="curve" smooth="yes"/>
      <point x="335" y="215" type="line"/>
      <point x="335" y="145" type="line"/>
      <point x="328" y="134"/>
      <point x="320" y="124"/>
      <point x="311" y="115" type="curve" smooth="yes"/>
      <point x="296" y="100"/>
      <point x="275" y="85"/>
    </contour>
  </outline>
</glyph>
<glyph name="ve-cy" format="2">
  <advance width="530"/>
  <unicode hex="0432"/>
  <outline>
    <contour>
      <point x="270" y="0" type="line" smooth="yes"/>
      <point x="435" y="0"/>
      <point x="495" y="60"/>
      <point x="495" y="135" type="curve" smooth="yes"/>
      <point x="495" y="209"/>
      <point x="436" y="249"/>
      <point x="370" y="260" type="curve"/>
      <point x="424" y="274"/>
      <point x="475" y="306"/>
      <point x="475" y="370" type="curve" smooth="yes"/>
      <point x="475" y="439"/>
      <point x="415" y="500"/>
      <point x="270" y="500" type="curve" smooth="yes"/>
      <point x="70" y="500" type="line"/>
      <point x="70" y="0" type="line"/>
    </contour>
    <contour>
      <point x="210" y="210" type="line"/>
      <point x="270" y="210" type="line" smooth="yes"/>
      <point x="330" y="210"/>
      <point x="355" y="185"/>
      <point x="355" y="150" type="curve" smooth="yes"/>
      <point x="355" y="115"/>
      <point x="330" y="90"/>
      <point x="270" y="90" type="curve" smooth="yes"/>
      <point x="210" y="90" type="line"/>
    </contour>
    <contour>
      <point x="210" y="410" type="line"/>
      <point x="270" y="410" type="line" smooth="yes"/>
      <point x="310" y="410"/>
      <point x="335" y="386"/>
      <point x="335" y="355" type="curve" smooth="yes"/>
      <point x="335" y="324"/>
      <point x="310" y="300"/>
      <point x="270" y="300" type="curve" smooth="yes"/>
      <point x="210" y="300" type="line"/>
    </contour>
  </outline>
</glyph>
<glyph name="de-cy" format="2">
  <advance width="600"/>
  <unicode hex="0434"/>
  <outline>
    <contour>
      <point x="115" y="-140" type="line"/>
      <point x="135" y="0" type="line"/>
      <point x="440" y="0" type="line"/>
      <point x="460" y="-140" type="line"/>
      <point x="565" y="-140" type="line"/>
      <point x="565" y="90" type="line"/>
      <point x="500" y="90" type="line"/>
      <point x="500" y="500" type="line"/>
      <point x="125" y="500" type="line"/>
      <point x="105" y="210" type="line" smooth="yes"/>
      <point x="102" y="167"/>
      <point x="90" y="137"/>
      <point x="78" y="118" type="curve" smooth="yes"/>
      <point x="71" y="107"/>
      <point x="63" y="97"/>
      <point x="55" y="90" type="curve"/>
      <point x="5" y="90" type="line"/>
      <point x="5" y="-140" type="line"/>
    </contour>
    <contour>
      <point x="191" y="90" type="line"/>
      <point x="199" y="97"/>
      <point x="207" y="107"/>
      <point x="214" y="118" type="curve" smooth="yes"/>
      <point x="226" y="137"/>
      <point x="238" y="167"/>
      <point x="241" y="210" type="curve" smooth="yes"/>
      <point x="255" y="410" type="line"/>
      <point x="360" y="410" type="line"/>
      <point x="360" y="90" type="line"/>
    </contour>
  </outline>
</glyph>
<glyph name="el-cy" format="2">
  <advance width="565"/>
  <unicode hex="043B"/>
  <outline>
    <contour>
      <point x="75" y="-10" type="curve" smooth="yes"/>
      <point x="166" y="-10"/>
      <point x="218" y="44"/>
      <point x="225" y="160" type="curve" smooth="yes"/>
      <point x="240" y="410" type="line"/>
      <point x="355" y="410" type="line"/>
      <point x="355" y="0" type="line"/>
      <point x="495" y="0" type="line"/>
      <point x="495" y="500" type="line"/>
      <point x="110" y="500" type="line"/>
      <point x="90" y="160" type="line" smooth="yes"/>
      <point x="86" y="100"/>
      <point x="65" y="80"/>
      <point x="45" y="80" type="curve" smooth="yes"/>
      <point x="41" y="80"/>
      <point x="36" y="81"/>
      <point x="31" y="82" type="curve"/>
      <point x="25" y="85" type="line"/>
      <point x="15" y="85" type="line"/>
      <point x="5" y="5" type="line"/>
      <point x="8.52431" y="3.71843"/>
      <point x="23.0192" y="-1.55242"/>
      <point x="27" y="-3" type="curve"/>
      <point x="40" y="-7"/>
      <point x="56" y="-10"/>
    </contour>
  </outline>
</glyph>
<glyph name="em-cy" format="2">
  <advance width="730"/>
  <unicode hex="043C"/>
  <outline>
    <contour>
      <point x="210" y="0" type="line"/>
      <point x="210" y="220" type="line" smooth="yes"/>
      <point x="210" y="235"/>
      <point x="209" y="250"/>
      <point x="208" y="261" type="curve" smooth="yes"/>
      <point x="206" y="280" type="line"/>
      <point x="210" y="280" type="line"/>
      <point x="211" y="274"/>
      <point x="213" y="268"/>
      <point x="216" y="261" type="curve"/>
      <point x="220" y="250"/>
      <point x="226" y="236"/>
      <point x="235" y="220" type="curve" smooth="yes"/>
      <point x="310" y="80" type="line"/>
      <point x="420" y="80" type="line"/>
      <point x="495" y="220" type="line" smooth="yes"/>
      <point x="503" y="235"/>
      <point x="509" y="250"/>
      <point x="513" y="261" type="curve" smooth="yes"/>
      <point x="520" y="280" type="line"/>
      <point x="524" y="280" type="line"/>
      <point x="522" y="261" type="line" smooth="yes"/>
      <point x="521" y="250"/>
      <point x="520" y="235"/>
      <point x="520" y="220" type="curve" smooth="yes"/>
      <point x="520" y="0" type="line"/>
      <point x="660" y="0" type="line"/>
      <point x="660" y="500" type="line"/>
      <point x="520" y="500" type="line"/>
      <point x="385" y="250" type="line"/>
      <point x="378" y="239"/>
      <point x="375" y="228"/>
      <point x="372" y="217" type="curve" smooth="yes"/>
      <point x="371.097" y="213.93"/>
      <point x="367.855" y="202.907"/>
      <point x="367" y="200" type="curve"/>
      <point x="363" y="200" type="line"/>
      <point x="362.145" y="202.907"/>
      <point x="358.903" y="213.93"/>
      <point x="358" y="217" type="curve" smooth="yes"/>
      <point x="355" y="228"/>
      <point x="350" y="239"/>
      <point x="345" y="250" type="curve"/>
      <point x="210" y="500" type="line"/>
      <point x="70" y="500" type="line"/>
      <point x="70" y="0" type="line"/>
    </contour>
  </outline>
</glyph>
<glyph name="o-cy" format="2">
  <advance width="540"/>
  <unicode hex="043E"/>
  <anchor x="270" y="250" name="center"/>
  <anchor x="270" y="500" name="top"/>
  <outline>
    <contour>
      <point x="270" y="-10" type="curve" smooth="yes"/>
      <point x="415" y="-10"/>
      <point x="500" y="74"/>
      <point x="500" y="250" type="curve" smooth="yes"/>
      <point x="500" y="426"/>
      <point x="415" y="510"/>
      <point x="270" y="510" type="curve" smooth="yes"/>
      <point x="125" y="510"/>
      <point x="40" y="426"/>
      <point x="40" y="250" type="curve" smooth="yes"/>
      <point x="40" y="74"/>
      <point x="125" y="-10"/>
    </contour>
    <contour>
      <point x="270" y="80" type="curve" smooth="yes"/>
      <point x="219" y="80"/>
      <point x="180" y="120"/>
      <point x="180" y="250" type="curve" smooth="yes"/>
      <point x="180" y="380"/>
      <point x="219" y="420"/>
      <point x="270" y="420" type="curve" smooth="yes"/>
      <point x="321" y="420"/>
      <point x="360" y="380"/>
      <point x="360" y="250" type="curve" smooth="yes"/>
      <point x="360" y="120"/>
      <point x="321" y="80"/>
    </contour>
  </outline>
</glyph>
<glyph name="es-cy" format="2">
  <advance width="475"/>
  <unicode hex="0441"/>
  <anchor x="155" y="0" name="bottomright"/>
  <outline>
    <contour>
      <point x="285" y="-10" type="curve" smooth="yes"/>
      <point x="336" y="-10"/>
      <point x="376" y="2"/>
      <point x="407" y="15" type="curve" smooth="yes"/>
      <point x="424" y="22"/>
      <point x="440" y="31"/>
      <point x="455" y="40" type="curve"/>
      <point x="410" y="120" type="line"/>
      <point x="400" y="120" type="line"/>
      <point x="392" y="113"/>
      <point x="383" y="106"/>
      <point x="372" y="100" type="curve" smooth="yes"/>
      <point x="353" y="89"/>
      <point x="327" y="80"/>
      <point x="295" y="80" type="curve" smooth="yes"/>
      <point x="220" y="80"/>
      <point x="180" y="120"/>
      <point x="180" y="250" type="curve" smooth="yes"/>
      <point x="180" y="380"/>
      <point x="221" y="420"/>
      <point x="285" y="420" type="curve" smooth="yes"/>
      <point x="317" y="420"/>
      <point x="343" y="411"/>
      <point x="362" y="400" type="curve" smooth="yes"/>
      <point x="373" y="394"/>
      <point x="382" y="387"/>
      <point x="390" y="380" type="curve"/>
      <point x="400" y="380" type="line"/>
      <point x="445" y="460" type="line"/>
      <point x="430" y="469"/>
      <point x="414" y="478"/>
      <point x="397" y="485" type="curve" smooth="yes"/>
      <point x="366" y="497"/>
      <point x="326" y="510"/>
      <point x="275" y="510" type="curve" smooth="yes"/>
      <point x="124" y="510"/>
      <point x="40" y="426"/>
      <point x="40" y="250" type="curve" smooth="yes"/>
      <point x="40" y="74"/>
      <point x="124" y="-10"/>
    </contour>
  </outline>
</glyph>
<glyph name="sha-cy" format="2">
  <advance width="820"/>
  <unicode hex="0448"/>
  <outline>
    <contour>
      <point x="750" y="0" type="line"/>
      <point x="750" y="500" type="line"/>
      <point x="610" y="500" type="line"/>
      <point x="610" y="90" type="line"/>
      <point x="480" y="90" type="line"/>
      <point x="480" y="500" type="line"/>
      <point x="340" y="500" type="line"/>
      <point x="340" y="90" type="line"/>
      <point x="210" y="90" type="line"/>
      <point x="210" y="500" type="line"/>
      <point x="70" y="500" type="line"/>
      <point x="70" y="0" type="line"/>
    </contour>
  </outline>
</glyph>
<glyph name="softsign-cy" format="2">
  <advance width="520"/>
  <unicode hex="044C"/>
  <outline>
    <contour>
      <point x="275" y="0" type="line" smooth="yes"/>
      <point x="440" y="0"/>
      <point x="500" y="60"/>
      <point x="500" y="170" type="curve" smooth="yes"/>
      <point x="500" y="280"/>
      <point x="440" y="340"/>
      <point x="275" y="340" type="curve" smooth="yes"/>
      <point x="210" y="340" type="line"/>
      <point x="210" y="500" type="line"/>
      <point x="70" y="500" type="line"/>
      <point x="70" y="0" type="line"/>
    </contour>
    <contour>
      <point x="210" y="250" type="line"/>
      <point x="275" y="250" type="line" smooth="yes"/>
      <point x="331" y="250"/>
      <point x="360" y="221"/>
      <point x="360" y="170" type="curve" smooth="yes"/>
      <point x="360" y="119"/>
      <point x="331" y="90"/>
      <point x="275" y="90" type="curve" smooth="yes"/>
      <point x="210" y="90" type="line"/>
    </contour>
  </outline>
</glyph>
<glyph name="Yat-cy" format="2">
  <advance width="659"/>
  <unicode hex="0462"/>
  <outline>
    <contour>
      <point x="354" y="0" type="line" smooth="yes"/>
      <point x="543" y="0"/>
      <point x="624" y="80"/>
      <point x="624" y="225" type="curve" smooth="yes"/>
      <point x="624" y="370"/>
      <point x="543" y="450"/>
      <point x="354" y="450" type="curve" smooth="yes"/>
      <point x="289" y="450" type="line"/>
      <point x="289" y="730" type="line"/>
      <point x="149" y="730" type="line"/>
      <point x="149" y="0" type="line"/>
    </contour>
    <contour>
      <point x="289" y="360" type="line"/>
      <point x="354" y="360" type="line" smooth="yes"/>
      <point x="445" y="360"/>
      <point x="484" y="321"/>
      <point x="484" y="225" type="curve" smooth="yes"/>
      <point x="484" y="129"/>
      <point x="445" y="90"/>
      <point x="354" y="90" type="curve" smooth="yes"/>
      <point x="289" y="90" type="line"/>
    </contour>
    <contour>
      <point x="465" y="530" type="line"/>
      <point x="465" y="620" type="line"/>
      <point x="15" y="620" type="line"/>
      <point x="15" y="530" type="line"/>
    </contour>
  </outline>
</glyph>
<glyph name="ghemiddlehook-cy" format="2">
  <advance width="535"/>
  <unicode hex="0495"/>
  <outline>
    <component base="ge-cy"/>
    <contour>
      <point x="325" y="-140" type="curve" smooth="yes"/>
      <point x="441" y="-140"/>
      <point x="510" y="-70"/>
      <point x="510" y="30" type="curve" smooth="yes"/>
      <point x="510" y="120" type="line" smooth="yes"/>
      <point x="510" y="246"/>
      <point x="437" y="312"/>
      <point x="325" y="312" type="curve" smooth="yes"/>
      <point x="290" y="312"/>
      <point x="251" y="305"/>
      <point x="210" y="292" type="curve"/>
      <point x="210" y="198" type="line"/>
      <point x="239" y="209"/>
      <point x="267" y="216"/>
      <point x="292" y="216" type="curve" smooth="yes"/>
      <point x="338" y="216"/>
      <point x="370" y="191"/>
      <point x="370" y="120" type="curve" smooth="yes"/>
      <point x="370" y="30" type="line" smooth="yes"/>
      <point x="370" y="-26"/>
      <point x="346" y="-50"/>
      <point x="315" y="-50" type="curve" smooth="yes"/>
      <point x="301" y="-50"/>
      <point x="275" y="-45"/>
      <point x="265" y="-40" type="curve"/>
      <point x="255" y="-40" type="line"/>
      <point x="240" y="-120" type="line"/>
      <point x="253" y="-127"/>
      <point x="289" y="-140"/>
    </contour>
  </outline>
</glyph>
<glyph name="Zhedescender-cy" format="2">
  <advance width="900"/>
  <unicode hex="0496"/>
  <outline>
    <component base="Zhe-cy"/>
    <contour>
      <point x="875" y="-150" type="line"/>
      <point x="875" y="5" type="line"/>
      <point x="750" y="0" type="line"/>
      <point x="770" y="-150" type="line"/>
    </contour>
  </outline>
</glyph>
<glyph name="zhedescender-cy" format="2">
  <advance width="770"/>
  <unicode hex="0497"/>
  <outline>
    <component base="zhe-cy"/>
    <contour>
      <point x="750" y="-140" type="line"/>
      <point x="750" y="5" type="line"/>
      <point x="625" y="0" type="line"/>
      <point x="645" y="-140" type="line"/>
    </contour>
  </outline>
</glyph>
<glyph name="Kadescender-cy" format="2">
  <advance width="615"/>
  <unicode hex="049A"/>
  <outline>
    <component base="Ka-cy"/>
    <contour>
      <point x="590" y="-150" type="line"/>
      <point x="590" y="5" type="line"/>
      <point x="465" y="0" type="line"/>
      <point x="485" y="-150" type="line"/>
    </contour>
  </outline>
</glyph>
<glyph name="enghe-cy" format="2">
  <advance width="680"/>
  <unicode hex="04A5"/>
  <outline>
    <component base="en-cy"/>
    <contour>
      <point x="670" y="410" type="line"/>
      <point x="670" y="500" type="line"/>
      <point x="370" y="500" type="line"/>
      <point x="510" y="410" type="line"/>
    </contour>
  </outline>
</glyph>
<glyph name="ustrait-cy" format="2">
  <advance width="500"/>
  <unicode hex="04AF"/>
  <anchor x="250" y="0" name="center"/>
  <outline>
    <contour>
      <point x="280" y="-200" type="line"/>
      <point x="320" y="-160" type="line"/>
      <point x="320" y="0" type="line"/>
      <point x="490" y="500" type="line"/>
      <point x="350" y="500" type="line"/>
      <point x="260" y="194" type="line" smooth="yes"/>
      <point x="257" y="183"/>
      <point x="255" y="170"/>
      <point x="254" y="159" type="curve" smooth="yes"/>
      <point x="252" y="139" type="line"/>
      <point x="248" y="139" type="line"/>
      <point x="246" y="159" type="line" smooth="yes"/>
      <point x="245" y="170"/>
      <point x="243" y="183"/>
      <point x="240" y="194" type="curve" smooth="yes"/>
      <point x="150" y="500" type="line"/>
      <point x="10" y="500" type="line"/>
      <point x="180" y="0" type="line"/>
      <point x="180" y="-200" type="line"/>
    </contour>
  </outline>
</glyph>
<glyph name="quoteleft" format="2">
  <advance width="220"/>
  <unicode hex="2018"/>
  <outline>
    <contour>
      <point x="115" y="435" type="curve" smooth="yes"/>
      <point x="150" y="435"/>
      <point x="185" y="470"/>
      <point x="185" y="510" type="curve" smooth="yes"/>
      <point x="185" y="550"/>
      <point x="150" y="585"/>
      <point x="110" y="585" type="curve"/>
      <point x="110" y="610"/>
      <point x="126" y="631"/>
      <point x="142" y="646" type="curve"/>
      <point x="151" y="655"/>
      <point x="162" y="663"/>
      <point x="175" y="670" type="curve"/>
      <point x="145" y="710" type="line"/>
      <point x="124" y="700"/>
      <point x="106" y="686"/>
      <point x="90" y="669" type="curve" smooth="yes"/>
      <point x="62" y="640"/>
      <point x="35" y="592"/>
      <point x="35" y="520" type="curve" smooth="yes"/>
      <point x="35" y="469"/>
      <point x="70" y="435"/>
    </contour>
  </outline>
</glyph>
<glyph name="numero" format="2">
  <advance width="1000"/>
  <unicode hex="2116"/>
  <outline>
    <contour>
      <point x="225" y="0" type="line"/>
      <point x="225" y="390" type="line" smooth="yes"/>
      <point x="225" y="405"/>
      <point x="223" y="421"/>
      <point x="222" y="434" type="curve" smooth="yes"/>
      <point x="220" y="455" type="line"/>
      <point x="224" y="455" type="line"/>
      <point x="225.399" y="451.327"/>
      <point x="230.719" y="437.363"/>
      <point x="232" y="434" type="curve" smooth="yes"/>
      <point x="237" y="421"/>
      <point x="243" y="405"/>
      <point x="250" y="390" type="curve" smooth="yes"/>
      <point x="425" y="0" type="line"/>
      <point x="575" y="0" type="line"/>
      <point x="575" y="700" type="line"/>
      <point x="435" y="700" type="line"/>
      <point x="435" y="310" type="line" smooth="yes"/>
      <point x="435" y="295"/>
      <point x="436" y="278"/>
      <point x="437" y="266" type="curve"/>
      <point x="440" y="245" type="line"/>
      <point x="436" y="245" type="line"/>
      <point x="434.719" y="248.363"/>
      <point x="429.399" y="262.327"/>
      <point x="428" y="266" type="curve"/>
      <point x="423" y="278"/>
      <point x="417" y="295"/>
      <point x="410" y="310" type="curve" smooth="yes"/>
      <point x="235" y="700" type="line"/>
      <point x="85" y="700" type="line"/>
      <point x="85" y="0" type="line"/>
    </contour>
    <contour>
      <point x="955" y="210" type="line"/>
      <point x="955" y="300" type="line"/>
      <point x="655" y="300" type="line"/>
      <point x="655" y="210" type="line"/>
    </contour>
    <contour>
      <point x="805" y="350" type="curve" smooth="yes"/>
      <point x="905" y="350"/>
      <point x="980" y="426"/>
      <point x="980" y="530" type="curve" smooth="yes"/>
      <point x="980" y="634"/>
      <point x="905" y="710"/>
      <point x="805" y="710" type="curve" smooth="yes"/>
      <point x="705" y="710"/>
      <point x="630" y="634"/>
      <point x="630" y="530" type="curve" smooth="yes"/>
      <point x="630" y="426"/>
      <point x="705" y="350"/>
    </contour>
    <contour>
      <point x="805" y="430" type="curve" smooth="yes"/>
      <point x="774" y="430"/>
      <point x="750" y="455"/>
      <point x="750" y="530" type="curve" smooth="yes"/>
      <point x="750" y="605"/>
      <point x="774" y="630"/>
      <point x="805" y="630" type="curve" smooth="yes"/>
      <point x="834" y="630"/>
      <point x="860" y="605"/>
      <point x="860" y="530" type="curve" smooth="yes"/>
      <point x="860" y="455"/>
      <point x="834" y="430"/>
    </contour>
  </outline>
</glyph>
<glyph name="Decyr.loclBGR" format="2">
  <advance width="690"/>
  <outline>
    <contour>
      <point x="590" y="76" type="line"/>
      <point x="412" y="700" type="line"/>
      <point x="282" y="700" type="line"/>
      <point x="103" y="76" type="line"/>
      <point x="224" y="76" type="line"/>
      <point x="329" y="460" type="line" smooth="yes"/>
      <point x="336" y="484"/>
      <point x="340" y="513"/>
      <point x="342" y="535" type="curve"/>
      <point x="346" y="535" type="line"/>
      <point x="348" y="513"/>
      <point x="353" y="484"/>
      <point x="359" y="460" type="curve" smooth="yes"/>
      <point x="463" y="76" type="line"/>
    </contour>
    <contour>
      <point x="40" y="90" type="line"/>
      <point x="40" y="-150" type="line"/>
      <point x="150" y="-150" type="line"/>
      <point x="170" y="0" type="line"/>
      <point x="525" y="0" type="line"/>
      <point x="545" y="-150" type="line"/>
      <point x="650" y="-150" type="line"/>
      <point x="650" y="90" type="line"/>
    </contour>
  </outline>
</glyph>
<glyph name="hardcyr.loclBGR" format="2">
  <advance width="580"/>
  <outline>
    <component base="softcyr.loclBGR" xOffset="60"/>
    <contour>
      <point x="270" y="500" type="line"/>
      <point x="10" y="500" type="line"/>
      <point x="10" y="410" type="line"/>
      <point x="270" y="410" type="line"/>
    </contour>
  </outline>
</glyph>
<glyph name="shacyr.loclBGR" format="2">
  <advance width="835"/>
  <outline>
    <contour>
      <point x="765" y="500" type="curve"/>
      <point x="741.363" y="500"/>
      <point x="648.025" y="500"/>
      <point x="625" y="500" type="curve"/>
      <point x="625" y="437.959"/>
      <point x="625" y="205.082"/>
      <point x="625" y="145" type="curve"/>
      <point x="612" y="116"/>
      <point x="585" y="85"/>
      <point x="550" y="85" type="curve" smooth="yes"/>
      <point x="515" y="85"/>
      <point x="485" y="115"/>
      <point x="485" y="180" type="curve" smooth="yes"/>
      <point x="485" y="500" type="line"/>
      <point x="345" y="500" type="line"/>
      <point x="345" y="135" type="line"/>
      <point x="326" y="111"/>
      <point x="304" y="85"/>
      <point x="270" y="85" type="curve" smooth="yes"/>
      <point x="235" y="85"/>
      <point x="205" y="115"/>
      <point x="205" y="180" type="curve" smooth="yes"/>
      <point x="205" y="230.643"/>
      <point x="205" y="436.977"/>
      <point x="205" y="500" type="curve"/>
      <point x="65" y="500" type="line"/>
      <point x="65" y="180" type="line" smooth="yes"/>
      <point x="65" y="59"/>
      <point x="134" y="-10"/>
      <point x="245" y="-10" type="curve" smooth="yes"/>
      <point x="301" y="-10"/>
      <point x="359" y="17"/>
      <point x="395" y="60" type="curve"/>
      <point x="421" y="12"/>
      <point x="472" y="-10"/>
      <point x="525" y="-10" type="curve" smooth="yes"/>
      <point x="575" y="-10"/>
      <point x="622" y="19"/>
      <point x="650" y="60" type="curve"/>
      <point x="655" y="60" type="line"/>
      <point x="665" y="0" type="line"/>
      <point x="684.141" y="0"/>
      <point x="747.773" y="0"/>
      <point x="765" y="0" type="curve"/>
      <point x="765" y="82.2333"/>
      <point x="765" y="417.911"/>
    </contour>
  </outline>
</glyph>
<glyph name="vecyr.loclBGR" format="2">
  <advance width="535"/>
  <outline>
    <contour>
      <point x="50" y="192" type="line" smooth="yes"/>
      <point x="50" y="69"/>
      <point x="130" y="-10"/>
      <point x="263" y="-10" type="curve" smooth="yes"/>
      <point x="397" y="-10"/>
      <point x="490" y="71"/>
      <point x="490" y="203" type="curve" smooth="yes"/>
      <point x="490" y="293"/>
      <point x="446" y="361"/>
      <point x="368" y="387" type="curve"/>
      <point x="431" y="412"/>
      <point x="470" y="471"/>
      <point x="470" y="540" type="curve" smooth="yes"/>
      <point x="470" y="644"/>
      <point x="380" y="715"/>
      <point x="264" y="715" type="curve" smooth="yes"/>
      <point x="134" y="715"/>
      <point x="50" y="625"/>
      <point x="50" y="494" type="curve" smooth="yes"/>
    </contour>
    <contour>
      <point x="190" y="400" type="curve"/>
      <point x="190" y="547" type="line" smooth="yes"/>
      <point x="190" y="609"/>
      <point x="222" y="630"/>
      <point x="257" y="630" type="curve" smooth="yes"/>
      <point x="300" y="630"/>
      <point x="330" y="598"/>
      <point x="330" y="541" type="curve" smooth="yes"/>
      <point x="330" y="491"/>
      <point x="307" y="426"/>
      <point x="253" y="418" type="curve" smooth="yes"/>
      <point x="240" y="416"/>
      <point x="205" y="407"/>
    </contour>
    <contour>
      <point x="190" y="297" type="line"/>
      <point x="209" y="315"/>
      <point x="240" y="330"/>
      <point x="269" y="330" type="curve" smooth="yes"/>
      <point x="320" y="330"/>
      <point x="350" y="285"/>
      <point x="350" y="210" type="curve" smooth="yes"/>
      <point x="350" y="137"/>
      <point x="320" y="75"/>
      <point x="261" y="75" type="curve" smooth="yes"/>
      <point x="210" y="75"/>
      <point x="190" y="122"/>
      <point x="190" y="168" type="curve" smooth="yes"/>
    </contour>
  </outline>
</glyph>
<glyph name="verticalbar-cy" format="2">
  <advance width="155"/>
  <anchor x="78" y="247" name="_center"/>
  <outline>
    <contour>
      <point x="105" y="117" type="line"/>
      <point x="105" y="377" type="line"/>
      <point x="50" y="377" type="line"/>
      <point x="50" y="117" type="line"/>
    </contour>
  </outline>
</glyph>
<glyph name="zecyr.loclBGR" format="2">
  <advance width="465"/>
  <outline>
    <contour>
      <point x="15" y="-160" type="line"/>
      <point x="69" y="-193"/>
      <point x="131" y="-210"/>
      <point x="197" y="-210" type="curve" smooth="yes"/>
      <point x="392" y="-210"/>
      <point x="430" y="-62"/>
      <point x="430" y="27" type="curve" smooth="yes"/>
      <point x="430" y="99"/>
      <point x="405" y="179"/>
      <point x="305" y="210" type="curve"/>
      <point x="366" y="222"/>
      <point x="420" y="275"/>
      <point x="420" y="353" type="curve" smooth="yes"/>
      <point x="420" y="435"/>
      <point x="360" y="510"/>
      <point x="212" y="510" type="curve" smooth="yes"/>
      <point x="141" y="510"/>
      <point x="80" y="493"/>
      <point x="25" y="460" type="curve"/>
      <point x="70" y="380" type="line"/>
      <point x="80" y="380" type="line"/>
      <point x="113" y="409"/>
      <point x="152" y="420"/>
      <point x="191" y="420" type="curve" smooth="yes"/>
      <point x="255" y="420"/>
      <point x="280" y="391"/>
      <point x="280" y="345" type="curve" smooth="yes"/>
      <point x="280" y="300"/>
      <point x="256" y="250"/>
      <point x="205" y="250" type="curve" smooth="yes"/>
      <point x="120" y="250" type="line"/>
      <point x="120" y="160" type="line"/>
      <point x="166" y="160" type="line" smooth="yes"/>
      <point x="250" y="160"/>
      <point x="290" y="125"/>
      <point x="290" y="20" type="curve" smooth="yes"/>
      <point x="290" y="-39"/>
      <point x="265" y="-120"/>
      <point x="176" y="-120" type="curve" smooth="yes"/>
      <point x="140" y="-120"/>
      <point x="105" y="-107"/>
      <point x="70" y="-80" type="curve"/>
      <point x="60" y="-80" type="line"/>
    </contour>
  </outline>
</glyph>
<glyph name="zhecyr.loclBGR" format="2">
  <advance width="740"/>
  <outline>
    <contour>
      <point x="5" y="0" type="line"/>
      <point x="160" y="0" type="line"/>
      <point x="300" y="235" type="line"/>
      <point x="300" y="0" type="line"/>
      <point x="440" y="0" type="line"/>
      <point x="440" y="235" type="line"/>
      <point x="580" y="0" type="line"/>
      <point x="735" y="0" type="line"/>
      <point x="565" y="260" type="line"/>
      <point x="725" y="500" type="line"/>
      <point x="570" y="500" type="line"/>
      <point x="440" y="285" type="line"/>
      <point x="440" y="700" type="line"/>
      <point x="340" y="700" type="line"/>
      <point x="300" y="660" type="line"/>
      <point x="300" y="285" type="line"/>
      <point x="170" y="500" type="line"/>
      <point x="15" y="500" type="line"/>
      <point x="175" y="260" type="line"/>
    </contour>
  </outline>
</glyph>
